<svg width="32" height="32" viewBox="0 0 32 32" fill="none" xmlns="http://www.w3.org/2000/svg">
<path fill-rule="evenodd" clip-rule="evenodd" d="M16 0C7.16344 0 0 7.16344 0 16C0 24.8366 7.16344 32 16 32C24.8366 32 32 24.8366 32 16C32 7.16344 24.8366 0 16 0ZM12.4823 7.51835C13.3925 7.47693 13.6834 7.4668 16.0009 7.4668H15.9983C18.3165 7.4668 18.6063 7.47693 19.5165 7.51835C20.425 7.55995 21.0454 7.70378 21.5894 7.9148C22.1512 8.13258 22.6259 8.42414 23.1005 8.89881C23.5752 9.37313 23.8668 9.84922 24.0854 10.4105C24.2952 10.9531 24.4392 11.5732 24.4819 12.4816C24.5228 13.3918 24.5335 13.6827 24.5335 16.0002C24.5335 18.3178 24.5228 18.6079 24.4819 19.5181C24.4392 20.4262 24.2952 21.0465 24.0854 21.5893C23.8668 22.1503 23.5752 22.6264 23.1005 23.1007C22.6264 23.5754 22.151 23.8677 21.59 24.0856C21.047 24.2967 20.4262 24.4405 19.5178 24.4821C18.6075 24.5235 18.3176 24.5336 15.9999 24.5336C13.6825 24.5336 13.3918 24.5235 12.4816 24.4821C11.5733 24.4405 10.953 24.2967 10.4101 24.0856C9.84921 23.8677 9.37312 23.5754 8.89898 23.1007C8.42449 22.6264 8.13293 22.1503 7.91479 21.5891C7.70394 21.0465 7.56012 20.4264 7.51834 19.5179C7.4771 18.6077 7.46679 18.3178 7.46679 16.0002C7.46679 13.6827 7.47745 13.3917 7.51817 12.4814C7.55905 11.5733 7.70306 10.9531 7.91461 10.4103C8.13328 9.84922 8.42484 9.37313 8.89951 8.89881C9.37383 8.42432 9.84992 8.13276 10.4112 7.9148C10.9538 7.70378 11.5739 7.55995 12.4823 7.51835Z" fill="#46BEBE"/>
<path fill-rule="evenodd" clip-rule="evenodd" d="M15.235 9.00409C15.3836 9.00385 15.5435 9.00393 15.7161 9.004L16.0005 9.00409C18.2789 9.00409 18.549 9.01226 19.4487 9.05315C20.2807 9.0912 20.7323 9.23022 21.0331 9.34702C21.4313 9.50169 21.7152 9.68658 22.0137 9.98525C22.3124 10.2839 22.4973 10.5684 22.6523 10.9666C22.7691 11.267 22.9083 11.7186 22.9462 12.5506C22.9871 13.4502 22.996 13.7204 22.996 15.9978C22.996 18.2751 22.9871 18.5453 22.9462 19.4449C22.9081 20.2769 22.7691 20.7285 22.6523 21.0289C22.4976 21.4271 22.3124 21.7107 22.0137 22.0092C21.7151 22.3079 21.4315 22.4928 21.0331 22.6474C20.7326 22.7648 20.2807 22.9034 19.4487 22.9415C18.5492 22.9824 18.2789 22.9913 16.0005 22.9913C13.7219 22.9913 13.4519 22.9824 12.5523 22.9415C11.7203 22.9031 11.2687 22.7641 10.9677 22.6472C10.5695 22.4926 10.2851 22.3077 9.9864 22.009C9.68773 21.7104 9.50284 21.4266 9.34782 21.0282C9.23102 20.7278 9.09182 20.2762 9.05395 19.4442C9.01306 18.5446 9.00488 18.2744 9.00488 15.9956C9.00488 13.7168 9.01306 13.448 9.05395 12.5485C9.09199 11.7165 9.23102 11.2649 9.34782 10.9641C9.50249 10.5659 9.68773 10.2814 9.9864 9.98276C10.2851 9.68409 10.5695 9.4992 10.9677 9.34418C11.2686 9.22684 11.7203 9.08818 12.5523 9.04995C13.3395 9.0144 13.6446 9.00373 15.235 9.00195V9.00409ZM20.5554 10.4209C19.9901 10.4209 19.5314 10.8791 19.5314 11.4446C19.5314 12.0099 19.9901 12.4686 20.5554 12.4686C21.1208 12.4686 21.5794 12.0099 21.5794 11.4446C21.5794 10.8792 21.1208 10.4206 20.5554 10.4206V10.4209ZM11.6183 15.9988C11.6183 13.5787 13.5804 11.6166 16.0004 11.6165C18.4205 11.6165 20.3821 13.5787 20.3821 15.9988C20.3821 18.4189 18.4207 20.3802 16.0006 20.3802C13.5805 20.3802 11.6183 18.4189 11.6183 15.9988Z" fill="#46BEBE"/>
<path fill-rule="evenodd" clip-rule="evenodd" d="M16.0007 13.1548C17.5716 13.1548 18.8452 14.4282 18.8452 15.9993C18.8452 17.5701 17.5716 18.8437 16.0007 18.8437C14.4297 18.8437 13.1562 17.5701 13.1562 15.9993C13.1562 14.4282 14.4297 13.1548 16.0007 13.1548V13.1548Z" fill="#46BEBE"/>
</svg>
