<svg width="185" height="41" viewBox="0 0 185 41" fill="none" xmlns="http://www.w3.org/2000/svg">
<path fill-rule="evenodd" clip-rule="evenodd" d="M3.75092 38.8076C3.42519 38.8076 3.27429 38.7936 3.07071 38.768V33.8004C3.20723 33.7748 3.4659 33.7609 3.64074 33.7609C4.85027 33.7609 5.12331 34.1566 5.12331 35.6231V36.7195C5.12331 38.5958 4.86704 38.8076 3.75092 38.8076ZM3.75092 40.5512C5.65503 40.5512 7.19028 40.2858 7.19028 36.7195V35.544C7.19028 32.3851 5.77718 32.1221 3.54734 32.1221C3.00365 32.1221 2.24201 32.1221 1.54982 32.2152C1.14265 32.2687 1.00613 32.3595 1.00613 32.8367V39.8924C1.00613 40.3021 1.08756 40.4068 1.52347 40.4604C2.26835 40.5372 2.85276 40.5512 3.75092 40.5512ZM13.7122 40.472C14.5001 40.472 14.7444 40.4068 14.7444 39.9296V32.7273C14.7444 32.2524 14.5001 32.1849 13.7122 32.1849C12.9361 32.1849 12.6799 32.2501 12.6799 32.7273V39.9296C12.6799 40.4068 12.9385 40.472 13.7122 40.472ZM20.9286 40.472C21.8388 40.472 22.0016 40.3789 22.1118 39.89L22.4112 38.5027H24.6003L24.9141 39.89C25.0218 40.3789 25.1871 40.472 26.0972 40.472C26.981 40.472 27.0768 40.3393 27.0768 40.0088C27.0768 39.8644 27.0505 39.6643 26.981 39.4012L25.4458 33.1254C25.2422 32.292 24.9165 32.1872 23.5153 32.1872C22.1142 32.1872 21.7885 32.292 21.5849 33.1254L20.0496 39.4012C19.9825 39.6666 19.9418 39.8644 19.9418 40.0088C19.9346 40.3393 20.0448 40.472 20.9286 40.472ZM23.4171 33.8377H23.6063L24.2865 37.0082H22.7225L23.4171 33.8377ZM35.1986 40.5512C37.1291 40.5512 38.0392 39.9692 38.0392 38.7145V36.1772C38.0392 35.8606 37.9722 35.6883 37.3997 35.6883H35.6729C35.3471 35.6883 35.2777 35.8466 35.2777 36.4542C35.2777 37.1665 35.3447 37.3271 35.6729 37.3271H36.2573V38.1861C36.2573 38.661 35.8765 38.7797 35.3591 38.7797C34.6118 38.7797 34.1759 38.6749 34.1759 36.7195V35.9141C34.1759 34.103 34.6118 33.8935 35.6585 33.8935C36.4752 33.8935 37.1938 34.0658 37.4261 34.0658C37.6033 34.0658 37.7111 33.8423 37.7111 33.286C37.7111 32.5201 37.6033 32.427 37.3854 32.3735C36.8273 32.2291 35.9723 32.1221 35.2106 32.1221C33.6203 32.1221 32.1113 32.3851 32.1113 35.821V37.1432C32.1137 40.195 33.4861 40.5512 35.1986 40.5512ZM44.5635 40.472C45.3515 40.472 45.5958 40.4068 45.5958 39.9296V36.0305H45.7179L47.8927 39.9552C48.1657 40.4441 48.3813 40.4697 48.925 40.4697C49.7537 40.4697 49.9716 40.4045 49.9716 39.9273V32.725C49.9716 32.2501 49.713 32.1826 48.9394 32.1826C48.1514 32.1826 47.9071 32.2478 47.9071 32.725V36.6241H47.7849L45.7587 32.7133C45.5 32.2105 45.1599 32.1849 44.6162 32.1849C43.7875 32.1849 43.5288 32.2501 43.5288 32.7273V39.9296C43.5288 40.4068 43.7875 40.472 44.5635 40.472ZM58.6299 38.8332C57.6791 38.8332 57.5282 38.6097 57.5282 36.7195V35.9537C57.5282 34.0635 57.7054 33.84 58.6299 33.84C59.5688 33.84 59.7317 34.0635 59.7317 35.9537V36.7195C59.7317 38.6097 59.5545 38.8332 58.6299 38.8332ZM58.6299 40.5512C60.764 40.5512 61.7987 40.1671 61.7987 36.943V35.8466C61.7987 32.5178 60.9149 32.1197 58.6299 32.1197C56.3738 32.1197 55.4612 32.5038 55.4612 35.8466V36.943C55.4636 40.1554 56.4552 40.5512 58.6299 40.5512ZM69.3935 40.5512C71.1755 40.5512 72.4928 39.8784 72.4928 37.8811C72.4928 36.5077 72.0042 36.0701 71.0797 35.6743L69.76 35.1063C69.3792 34.9481 69.2019 34.8549 69.2019 34.4848C69.2019 33.9424 69.6378 33.9029 70.263 33.9029C71.2138 33.9029 71.7048 34.0611 71.9347 34.0611C72.124 34.0611 72.2605 33.9029 72.2605 33.2813C72.2605 32.5271 72.1527 32.4223 71.9347 32.3688C71.3767 32.2245 70.6151 32.1174 69.7456 32.1174C68.4667 32.1174 67.2164 32.6062 67.2164 34.4569C67.2164 35.7395 67.7457 36.254 68.5074 36.5845L69.8798 37.1921C70.4378 37.4295 70.5049 37.5622 70.5049 37.9859C70.5049 38.6191 69.9755 38.7657 69.0918 38.7657C68.0858 38.7657 67.6906 38.6074 67.3912 38.6074C67.1733 38.6074 67.0775 38.7261 67.0775 39.3872C67.0775 40.1019 67.1853 40.2322 67.499 40.3114C67.9661 40.4464 68.687 40.5512 69.3935 40.5512ZM80.3895 40.472C81.1775 40.472 81.4218 40.4068 81.4218 39.9296V33.9448H82.8229C83.2037 33.9448 83.3259 33.7865 83.3259 33.0718C83.3259 32.3572 83.2037 32.1872 82.8229 32.1872H77.956C77.5752 32.1872 77.4531 32.3595 77.4531 33.0718C77.4531 33.7865 77.5752 33.9448 77.956 33.9448H79.3572V39.9296C79.3548 40.4068 79.6015 40.472 80.3895 40.472ZM89.522 40.472C90.31 40.472 90.5543 40.4068 90.5543 39.9296V32.7273C90.5543 32.2524 90.31 32.1849 89.522 32.1849C88.746 32.1849 88.4897 32.2501 88.4897 32.7273V39.9296C88.4873 40.4068 88.746 40.472 89.522 40.472ZM99.0473 40.5512C99.876 40.5512 100.571 40.4464 101.126 40.2998C101.344 40.2462 101.452 40.1159 101.452 39.3872C101.452 38.7936 101.397 38.6074 101.179 38.6074C100.88 38.6074 100.472 38.7797 99.603 38.7797C98.4893 38.7797 98.1204 38.6749 98.1204 36.7195V35.9141C98.1204 34.103 98.5276 33.8935 99.603 33.8935C100.42 33.8935 100.949 34.0658 101.179 34.0658C101.342 34.0658 101.452 33.8423 101.452 33.286C101.452 32.5201 101.344 32.427 101.126 32.3735C100.568 32.2291 99.8473 32.1221 99.088 32.1221C97.5791 32.1221 96.0558 32.3851 96.0558 35.821V37.1432C96.0558 40.195 97.4306 40.5512 99.0473 40.5512ZM122.622 40.5512C123.451 40.5512 124.146 40.4464 124.701 40.2998C124.919 40.2462 125.027 40.1159 125.027 39.3872C125.027 38.7936 124.972 38.6074 124.754 38.6074C124.455 38.6074 124.047 38.7797 123.178 38.7797C122.064 38.7797 121.695 38.6749 121.695 36.7195V35.9141C121.695 34.103 122.103 33.8935 123.178 33.8935C123.995 33.8935 124.524 34.0658 124.754 34.0658C124.917 34.0658 125.027 33.8423 125.027 33.286C125.027 32.5201 124.919 32.427 124.701 32.3735C124.143 32.2291 123.422 32.1221 122.663 32.1221C121.154 32.1221 119.631 32.3851 119.631 35.821V37.1432C119.631 40.195 121.003 40.5512 122.622 40.5512ZM135.712 39.5991C135.712 38.8844 135.589 38.7145 135.209 38.7145H132.435V37.0222H134.162C134.598 37.0222 134.665 36.8639 134.665 36.1492C134.665 35.4346 134.598 35.2902 134.162 35.2902H132.435V33.9424H135.072C135.453 33.9424 135.575 33.7841 135.575 33.0695C135.575 32.3548 135.453 32.1849 135.072 32.1849H130.938C130.531 32.1849 130.368 32.2501 130.368 32.6738V39.9808C130.368 40.4045 130.531 40.4697 130.938 40.4697H135.206C135.587 40.472 135.712 40.3137 135.712 39.5991ZM142.016 40.472C142.803 40.472 143.048 40.4068 143.048 39.9296V36.0305H143.17L145.345 39.9552C145.618 40.4441 145.833 40.4697 146.377 40.4697C147.206 40.4697 147.424 40.4045 147.424 39.9273V32.725C147.424 32.2501 147.165 32.1826 146.391 32.1826C145.603 32.1826 145.359 32.2478 145.359 32.725V36.6241H145.237L143.211 32.7133C142.952 32.2105 142.612 32.1849 142.068 32.1849C141.239 32.1849 140.981 32.2501 140.981 32.7273V39.9296C140.981 40.4068 141.239 40.472 142.016 40.472ZM155.526 40.472C156.314 40.472 156.559 40.4068 156.559 39.9296V33.9448H157.96C158.341 33.9448 158.463 33.7865 158.463 33.0718C158.463 32.3572 158.341 32.1872 157.96 32.1872H153.093C152.712 32.1872 152.59 32.3595 152.59 33.0718C152.59 33.7865 152.712 33.9448 153.093 33.9448H154.494V39.9296C154.492 40.4068 154.736 40.472 155.526 40.472ZM168.968 39.5991C168.968 38.8844 168.845 38.7145 168.465 38.7145H165.691V37.0222H167.418C167.854 37.0222 167.921 36.8639 167.921 36.1492C167.921 35.4346 167.854 35.2902 167.418 35.2902H165.691V33.9424H168.328C168.709 33.9424 168.831 33.7841 168.831 33.0695C168.831 32.3548 168.709 32.1849 168.328 32.1849H164.194C163.787 32.1849 163.624 32.2501 163.624 32.6738V39.9808C163.624 40.4045 163.787 40.4697 164.194 40.4697H168.462C168.845 40.472 168.968 40.3137 168.968 39.5991ZM175.272 40.472C176.06 40.472 176.304 40.4068 176.304 39.9296V37.4062H177.147L178.086 39.9157C178.275 40.4301 178.426 40.4697 179.487 40.4697C180.263 40.4697 180.316 40.2462 180.316 40.0856C180.316 40.0064 180.289 39.9017 180.086 39.478L178.917 37.0478C179.664 36.6916 180.114 35.9909 180.114 34.7362C180.114 32.5434 179.149 32.1197 177.341 32.1197C176.321 32.1197 175.478 32.1593 174.785 32.2385C174.378 32.292 174.242 32.3828 174.242 32.846V39.9273C174.239 40.4068 174.498 40.472 175.272 40.472ZM176.306 33.7981C176.402 33.7841 176.809 33.7585 177.068 33.7585C177.693 33.7585 177.992 33.996 177.992 34.8549C177.992 35.7931 177.748 36.0165 176.931 36.0165H176.306V33.7981ZM10.2009 27.0078C17.3168 27.0078 19.8316 24.8988 19.8316 18.7021V2.04408C19.8316 0.526328 19.0508 0.314495 16.5336 0.314495C14.0618 0.314495 13.2355 0.526328 13.2355 2.04408V19.0373C13.2355 21.1463 12.7589 21.6514 10.1985 21.6514C7.63817 21.6514 7.16154 21.1463 7.16154 19.0373V2.04408C7.16154 0.526328 6.38075 0.314495 3.86349 0.314495C1.38935 0.314495 0.56543 0.526328 0.56543 2.04408V18.6998C0.57022 24.8988 3.08748 27.0078 10.2009 27.0078ZM31.5485 5.92458L23.8698 19.9242C22.6124 22.2008 22.2651 23.1715 22.2651 24.226C22.2651 26.207 22.483 26.7564 23.8698 26.7564H37.9267C39.141 26.7564 39.5314 26.2513 39.5314 23.9723C39.5314 21.6957 39.141 21.1463 37.9267 21.1463H29.9845L37.838 6.89296C38.9661 4.78394 39.2272 3.94126 39.2272 2.84485C39.2272 0.905765 39.0092 0.314495 37.6225 0.314495H24.6075C23.3932 0.314495 23.0028 0.861537 23.0028 3.14049C23.0028 5.41944 23.3932 5.92458 24.6075 5.92458H31.5485ZM45.2581 26.7541C47.7753 26.7541 48.5561 26.5422 48.5561 25.0245V2.04408C48.5561 0.526328 47.7753 0.314495 45.2581 0.314495C42.7839 0.314495 41.96 0.526328 41.96 2.04408V25.0245C41.96 26.5422 42.7839 26.7541 45.2581 26.7541ZM78.8374 23.97C78.8374 21.6933 78.447 21.144 77.2327 21.144H68.3828V15.7481H73.8916C75.2807 15.7481 75.4963 15.2429 75.4963 12.964C75.4963 10.6873 75.2783 10.2241 73.8916 10.2241H68.3828V5.92458H76.7992C78.0135 5.92458 78.4039 5.41944 78.4039 3.14049C78.4039 0.861537 78.0135 0.314495 76.7992 0.314495H63.6094C62.3088 0.314495 61.7867 0.526328 61.7867 1.87415V25.1921C61.7867 26.5422 62.3064 26.7517 63.6094 26.7517H77.2327C78.447 26.7541 78.8374 26.2489 78.8374 23.97ZM83.436 26.7541C86.0826 26.7541 86.5161 26.5003 87.3832 24.8988L90.5926 18.7836H90.765L94.1062 24.8988C94.9733 26.5003 95.4068 26.7541 98.0534 26.7541C100.743 26.7541 101.308 26.1209 101.308 25.2363C101.308 24.7312 101.047 24.0142 100.31 22.8317L94.1493 13.1758L99.7036 4.2369C100.441 3.09859 100.702 2.38161 100.702 1.87647C100.702 0.991895 100.139 0.316823 97.4043 0.316823C94.7146 0.316823 94.238 0.570556 93.414 2.17211L90.8968 7.23283H90.7243L88.0778 2.17211C87.2538 0.570556 86.7772 0.316823 84.0875 0.316823C81.3547 0.316823 80.7463 0.991895 80.7463 1.87647C80.7463 2.38161 81.0505 3.09859 81.7882 4.28113L87.297 13.1781L81.1799 22.9597C80.4422 24.098 80.138 24.7731 80.138 25.2363C80.138 26.1209 80.7032 26.7541 83.436 26.7541ZM107.081 26.7541C109.598 26.7541 110.379 26.5422 110.379 25.0245V18.5298H111.332C118.273 18.5298 122.524 16.8421 122.524 8.87395C122.524 1.4109 119.444 0.102661 113.674 0.102661C110.419 0.102661 107.73 0.228364 105.519 0.482099C104.218 0.649703 103.782 0.945338 103.782 2.42119V25.0222C103.782 26.5422 104.606 26.7541 107.081 26.7541ZM110.379 5.45901C110.769 5.41711 111.983 5.33331 112.807 5.33331C114.802 5.33331 115.758 6.00838 115.758 9.29762C115.758 12.5869 114.977 13.3876 111.679 13.3876H110.379V5.45901ZM142.698 23.97C142.698 21.6933 142.308 21.144 141.093 21.144H132.243V15.7481H137.752C139.141 15.7481 139.357 15.2429 139.357 12.964C139.357 10.6873 139.139 10.2241 137.752 10.2241H132.243V5.92458H140.66C141.874 5.92458 142.265 5.41944 142.265 3.14049C142.265 0.861537 141.874 0.314495 140.66 0.314495H127.47C126.169 0.314495 125.647 0.526328 125.647 1.87415V25.1921C125.647 26.5422 126.167 26.7517 127.47 26.7517H141.093C142.308 26.7541 142.698 26.2489 142.698 23.97ZM148.686 26.7541C151.203 26.7541 151.984 26.5422 151.984 25.0245V16.9702H154.674L157.668 24.9826C158.276 26.626 158.753 26.7541 162.137 26.7541C164.611 26.7541 164.783 26.0371 164.783 25.532C164.783 25.2782 164.697 24.9407 164.046 23.5929L160.314 15.8342C162.7 14.6959 164.132 12.4611 164.132 8.45494C164.132 1.45513 161.052 0.104989 155.282 0.104989C152.027 0.104989 149.337 0.230692 147.127 0.484426C145.826 0.652031 145.39 0.947666 145.39 2.42351V25.0245C145.39 26.5422 146.214 26.7541 148.686 26.7541ZM151.984 5.45901C152.288 5.41711 153.589 5.33331 154.413 5.33331C156.408 5.33331 157.363 6.09219 157.363 8.83205C157.363 11.8256 156.583 12.5426 153.979 12.5426H151.984V5.45901ZM175.628 26.7541C178.146 26.7541 178.926 26.5422 178.926 25.0245V5.92458H183.396C184.61 5.92458 185 5.41944 185 3.14049C185 0.861537 184.61 0.314495 183.396 0.314495H167.863C166.649 0.314495 166.259 0.861537 166.259 3.14049C166.259 5.41944 166.649 5.92458 167.863 5.92458H172.333V25.0268C172.33 26.5422 173.111 26.7541 175.628 26.7541Z" fill="#46BEBE"/>
</svg>
